<?xml version="1.0" encoding="UTF-8" standalone="no"?>
<!DOCTYPE svg PUBLIC "-//W3C//DTD SVG 1.1//EN" "http://www.w3.org/Graphics/SVG/1.1/DTD/svg11.dtd">
<svg width="100%" height="100%" viewBox="0 0 11864 2481" version="1.1" xmlns="http://www.w3.org/2000/svg" xmlns:xlink="http://www.w3.org/1999/xlink" xml:space="preserve" xmlns:serif="http://www.serif.com/" style="fill-rule:evenodd;clip-rule:evenodd;stroke-linecap:round;stroke-linejoin:round;stroke-miterlimit:1.5;">
    <g id="Artboard1" transform="matrix(3.38204,0,0,1,0,0)">
        <rect x="0" y="0" width="3507.87" height="2480.32" style="fill:none;"/>
        <g transform="matrix(4.43067,0,0,14.0349,-8757.52,-17844.8)">
            <g transform="matrix(0.161156,0.161156,-0.161156,0.161156,2024.88,1023.13)">
                <circle cx="1223.19" cy="801.971" r="59.652" style="fill:rgb(37,137,198);"/>
            </g>
            <g transform="matrix(0.310249,0.310249,-0.310249,0.310249,1998.05,685.226)">
                <circle cx="1223.19" cy="801.971" r="59.652" style="fill:none;stroke:rgb(37,137,198);stroke-width:16.92px;"/>
            </g>
            <g transform="matrix(0.30864,0.30864,-0.30864,0.30864,1905.96,710.472)">
                <circle cx="1223.19" cy="801.971" r="59.652" style="fill:none;stroke:rgb(37,137,198);stroke-width:17.68px;"/>
            </g>
            <g transform="matrix(0.30872,0.30872,-0.30872,0.30872,1976.71,781.089)">
                <circle cx="1223.19" cy="801.971" r="59.652" style="fill:none;stroke:rgb(37,137,198);stroke-width:17px;"/>
            </g>
            <g transform="matrix(0.0614569,0.0614569,-0.0614569,0.0614569,2071.61,1194.63)">
                <path d="M1432.06,1084.16L1432.06,796.145L1432.06,1084.16Z" style="fill:none;stroke:rgb(37,137,198);stroke-width:34.16px;"/>
            </g>
            <g transform="matrix(-0.029578,0.110387,-0.110387,-0.029578,2223.29,1214.71)">
                <path d="M1432.06,1084.16L1432.06,796.145L1432.06,1084.16Z" style="fill:none;stroke:rgb(37,137,198);stroke-width:24.71px;"/>
            </g>
            <g transform="matrix(-0.109726,0.029401,0.029401,0.109726,2226.76,1219.79)">
                <path d="M1432.06,1084.16L1432.06,796.145L1432.06,1084.16Z" style="fill:none;stroke:rgb(37,137,198);stroke-width:25.69px;"/>
            </g>
        </g>
        <g transform="matrix(1.13472,0,0,3.83767,-188.889,675.587)">
            <g transform="matrix(369.147,0,0,369.147,945.46,297.476)">
                <path d="M0.254,0.009C0.207,0.009 0.169,-0.001 0.138,-0.021C0.107,-0.041 0.083,-0.069 0.067,-0.104C0.051,-0.139 0.042,-0.18 0.039,-0.227L0.139,-0.254C0.141,-0.225 0.146,-0.198 0.153,-0.171C0.16,-0.144 0.171,-0.123 0.187,-0.106C0.203,-0.089 0.225,-0.08 0.254,-0.08C0.283,-0.08 0.306,-0.088 0.321,-0.105C0.335,-0.121 0.343,-0.144 0.343,-0.175C0.343,-0.212 0.335,-0.241 0.318,-0.264C0.301,-0.286 0.28,-0.308 0.255,-0.331L0.119,-0.451C0.092,-0.474 0.073,-0.5 0.06,-0.528C0.047,-0.555 0.041,-0.589 0.041,-0.63C0.041,-0.689 0.058,-0.735 0.092,-0.768C0.126,-0.801 0.172,-0.817 0.231,-0.817C0.263,-0.817 0.291,-0.813 0.316,-0.805C0.34,-0.796 0.36,-0.783 0.377,-0.766C0.393,-0.749 0.406,-0.727 0.416,-0.701C0.425,-0.674 0.432,-0.643 0.435,-0.608L0.339,-0.582C0.337,-0.609 0.333,-0.633 0.327,-0.656C0.321,-0.678 0.311,-0.696 0.296,-0.71C0.281,-0.723 0.259,-0.73 0.231,-0.73C0.203,-0.73 0.181,-0.723 0.166,-0.708C0.15,-0.693 0.142,-0.67 0.142,-0.641C0.142,-0.616 0.146,-0.596 0.155,-0.58C0.163,-0.564 0.176,-0.548 0.195,-0.531L0.332,-0.411C0.363,-0.384 0.39,-0.353 0.413,-0.316C0.436,-0.279 0.448,-0.235 0.448,-0.184C0.448,-0.144 0.44,-0.11 0.423,-0.081C0.406,-0.051 0.384,-0.029 0.355,-0.014C0.325,0.001 0.292,0.009 0.254,0.009Z" style="fill:rgb(37,137,198);fill-rule:nonzero;"/>
            </g>
            <g transform="matrix(369.147,0,0,369.147,1120.07,297.476)">
                <path d="M0.019,0L0.191,-0.81L0.3,-0.81L0.473,0L0.366,0L0.329,-0.204L0.164,-0.204L0.125,0L0.019,0ZM0.179,-0.285L0.314,-0.285L0.246,-0.65L0.179,-0.285Z" style="fill:rgb(37,137,198);fill-rule:nonzero;"/>
            </g>
            <g transform="matrix(369.147,0,0,369.147,1301.69,297.476)">
                <path d="M0.063,0L0.063,-0.81L0.264,-0.81C0.313,-0.81 0.352,-0.801 0.381,-0.784C0.409,-0.766 0.431,-0.74 0.444,-0.707C0.457,-0.674 0.464,-0.633 0.464,-0.586C0.464,-0.543 0.456,-0.506 0.442,-0.475C0.427,-0.444 0.404,-0.42 0.375,-0.403C0.346,-0.386 0.309,-0.377 0.265,-0.377L0.176,-0.377L0.176,0L0.063,0ZM0.176,-0.458L0.228,-0.458C0.261,-0.458 0.286,-0.462 0.305,-0.469C0.324,-0.476 0.337,-0.489 0.345,-0.508C0.353,-0.526 0.357,-0.552 0.357,-0.585C0.357,-0.624 0.354,-0.653 0.349,-0.674C0.343,-0.695 0.331,-0.709 0.313,-0.717C0.295,-0.725 0.267,-0.729 0.229,-0.729L0.176,-0.729L0.176,-0.458Z" style="fill:rgb(37,137,198);fill-rule:nonzero;"/>
            </g>
            <g transform="matrix(369.147,0,0,369.147,1478.88,297.476)">
                <path d="M0.063,0L0.063,-0.81L0.249,-0.81C0.286,-0.81 0.318,-0.806 0.345,-0.798C0.372,-0.79 0.394,-0.778 0.412,-0.761C0.43,-0.744 0.443,-0.723 0.452,-0.698C0.461,-0.672 0.465,-0.642 0.465,-0.607C0.465,-0.574 0.461,-0.545 0.453,-0.521C0.444,-0.496 0.432,-0.477 0.415,-0.463C0.398,-0.449 0.376,-0.44 0.349,-0.436C0.382,-0.429 0.408,-0.416 0.428,-0.399C0.448,-0.381 0.463,-0.358 0.473,-0.331C0.482,-0.303 0.487,-0.27 0.487,-0.231C0.487,-0.196 0.483,-0.165 0.475,-0.136C0.467,-0.107 0.455,-0.083 0.438,-0.063C0.421,-0.043 0.399,-0.028 0.373,-0.017C0.346,-0.006 0.315,0 0.279,0L0.063,0ZM0.176,-0.081L0.252,-0.081C0.303,-0.081 0.337,-0.093 0.354,-0.117C0.371,-0.14 0.379,-0.178 0.379,-0.231C0.379,-0.265 0.375,-0.294 0.366,-0.317C0.357,-0.339 0.342,-0.357 0.323,-0.369C0.303,-0.38 0.276,-0.386 0.243,-0.386L0.176,-0.386L0.176,-0.081ZM0.176,-0.472L0.243,-0.472C0.275,-0.472 0.3,-0.476 0.318,-0.486C0.336,-0.495 0.349,-0.509 0.356,-0.529C0.363,-0.549 0.367,-0.575 0.367,-0.607C0.367,-0.644 0.361,-0.671 0.35,-0.688C0.339,-0.705 0.321,-0.715 0.297,-0.72C0.273,-0.724 0.242,-0.726 0.203,-0.726L0.176,-0.726L0.176,-0.472Z" style="fill:rgb(37,137,198);fill-rule:nonzero;"/>
            </g>
            <g transform="matrix(369.147,0,0,369.147,1672.31,297.476)">
                <path d="M0.168,0L0.036,-0.81L0.13,-0.81L0.217,-0.228L0.326,-0.807L0.406,-0.807L0.516,-0.225L0.601,-0.81L0.693,-0.81L0.563,0L0.481,0L0.368,-0.6L0.254,0L0.168,0Z" style="fill:rgb(37,137,198);fill-rule:nonzero;"/>
            </g>
            <g transform="matrix(369.147,0,0,369.147,2025.95,297.476)">
                <path d="M0.254,0.009C0.207,0.009 0.169,-0.001 0.138,-0.021C0.107,-0.041 0.083,-0.069 0.067,-0.104C0.051,-0.139 0.042,-0.18 0.039,-0.227L0.139,-0.254C0.141,-0.225 0.146,-0.198 0.153,-0.171C0.16,-0.144 0.171,-0.123 0.187,-0.106C0.203,-0.089 0.225,-0.08 0.254,-0.08C0.283,-0.08 0.306,-0.088 0.321,-0.105C0.335,-0.121 0.343,-0.144 0.343,-0.175C0.343,-0.212 0.335,-0.241 0.318,-0.264C0.301,-0.286 0.28,-0.308 0.255,-0.331L0.119,-0.451C0.092,-0.474 0.073,-0.5 0.06,-0.528C0.047,-0.555 0.041,-0.589 0.041,-0.63C0.041,-0.689 0.058,-0.735 0.092,-0.768C0.126,-0.801 0.172,-0.817 0.231,-0.817C0.263,-0.817 0.291,-0.813 0.316,-0.805C0.34,-0.796 0.36,-0.783 0.377,-0.766C0.393,-0.749 0.406,-0.727 0.416,-0.701C0.425,-0.674 0.432,-0.643 0.435,-0.608L0.339,-0.582C0.337,-0.609 0.333,-0.633 0.327,-0.656C0.321,-0.678 0.311,-0.696 0.296,-0.71C0.281,-0.723 0.259,-0.73 0.231,-0.73C0.203,-0.73 0.181,-0.723 0.166,-0.708C0.15,-0.693 0.142,-0.67 0.142,-0.641C0.142,-0.616 0.146,-0.596 0.155,-0.58C0.163,-0.564 0.176,-0.548 0.195,-0.531L0.332,-0.411C0.363,-0.384 0.39,-0.353 0.413,-0.316C0.436,-0.279 0.448,-0.235 0.448,-0.184C0.448,-0.144 0.44,-0.11 0.423,-0.081C0.406,-0.051 0.384,-0.029 0.355,-0.014C0.325,0.001 0.292,0.009 0.254,0.009Z" style="fill:rgb(103,123,135);fill-rule:nonzero;"/>
            </g>
            <g transform="matrix(369.147,0,0,369.147,2200.56,297.476)">
                <path d="M0.213,0.008C0.17,0.008 0.137,-0.001 0.112,-0.018C0.087,-0.035 0.07,-0.06 0.06,-0.092C0.049,-0.124 0.044,-0.162 0.044,-0.205L0.044,-0.373C0.044,-0.416 0.049,-0.454 0.06,-0.486C0.07,-0.518 0.087,-0.543 0.112,-0.56C0.137,-0.577 0.17,-0.586 0.213,-0.586C0.256,-0.586 0.289,-0.577 0.314,-0.56C0.338,-0.543 0.355,-0.518 0.366,-0.486C0.376,-0.454 0.381,-0.416 0.381,-0.373L0.381,-0.205C0.381,-0.162 0.376,-0.124 0.366,-0.092C0.355,-0.06 0.338,-0.035 0.314,-0.018C0.289,-0.001 0.256,0.008 0.213,0.008ZM0.213,-0.071C0.234,-0.071 0.248,-0.077 0.257,-0.089C0.265,-0.101 0.27,-0.117 0.272,-0.137C0.273,-0.156 0.274,-0.177 0.274,-0.198L0.274,-0.379C0.274,-0.401 0.273,-0.422 0.272,-0.441C0.27,-0.46 0.265,-0.476 0.257,-0.489C0.248,-0.501 0.234,-0.507 0.213,-0.507C0.192,-0.507 0.178,-0.501 0.169,-0.489C0.16,-0.476 0.155,-0.46 0.154,-0.441C0.152,-0.422 0.151,-0.401 0.151,-0.379L0.151,-0.198C0.151,-0.177 0.152,-0.156 0.154,-0.137C0.155,-0.117 0.16,-0.101 0.169,-0.089C0.178,-0.077 0.192,-0.071 0.213,-0.071Z" style="fill:rgb(103,123,135);fill-rule:nonzero;"/>
            </g>
            <g transform="matrix(369.147,0,0,369.147,2357.45,297.476)">
                <rect x="0.064" y="-0.81" width="0.107" height="0.81" style="fill:rgb(103,123,135);fill-rule:nonzero;"/>
            </g>
            <g transform="matrix(369.147,0,0,369.147,2441.98,297.476)">
                <path d="M0.137,0.008C0.114,0.008 0.097,0.002 0.084,-0.01C0.071,-0.022 0.063,-0.037 0.058,-0.055C0.053,-0.073 0.05,-0.091 0.05,-0.11L0.05,-0.578L0.157,-0.578L0.157,-0.142C0.157,-0.121 0.16,-0.105 0.166,-0.094C0.172,-0.082 0.184,-0.076 0.203,-0.076C0.215,-0.076 0.228,-0.08 0.241,-0.087C0.254,-0.094 0.266,-0.102 0.278,-0.112L0.278,-0.578L0.385,-0.578L0.385,0L0.278,0L0.278,-0.057C0.259,-0.039 0.238,-0.024 0.215,-0.011C0.191,0.002 0.165,0.008 0.137,0.008Z" style="fill:rgb(103,123,135);fill-rule:nonzero;"/>
            </g>
            <g transform="matrix(369.147,0,0,369.147,2604.41,297.476)">
                <path d="M0.208,0.008C0.178,0.008 0.154,0.002 0.136,-0.009C0.117,-0.02 0.104,-0.036 0.096,-0.057C0.087,-0.078 0.083,-0.102 0.083,-0.13L0.083,-0.507L0.022,-0.507L0.022,-0.578L0.083,-0.578L0.083,-0.747L0.19,-0.747L0.19,-0.578L0.283,-0.578L0.283,-0.507L0.19,-0.507L0.19,-0.137C0.19,-0.114 0.194,-0.098 0.201,-0.089C0.208,-0.079 0.222,-0.074 0.243,-0.074C0.248,-0.074 0.255,-0.074 0.262,-0.075C0.269,-0.076 0.275,-0.076 0.282,-0.077L0.282,0.002C0.269,0.004 0.256,0.006 0.245,0.007C0.234,0.008 0.221,0.008 0.208,0.008Z" style="fill:rgb(103,123,135);fill-rule:nonzero;"/>
            </g>
            <g transform="matrix(369.147,0,0,369.147,2718.11,297.476)">
                <path d="M0.061,0L0.061,-0.578L0.168,-0.578L0.168,0L0.061,0ZM0.061,-0.664L0.061,-0.776L0.168,-0.776L0.168,-0.664L0.061,-0.664Z" style="fill:rgb(103,123,135);fill-rule:nonzero;"/>
            </g>
            <g transform="matrix(369.147,0,0,369.147,2802.64,297.476)">
                <path d="M0.213,0.008C0.17,0.008 0.137,-0.001 0.112,-0.018C0.087,-0.035 0.07,-0.06 0.06,-0.092C0.049,-0.124 0.044,-0.162 0.044,-0.205L0.044,-0.373C0.044,-0.416 0.049,-0.454 0.06,-0.486C0.07,-0.518 0.087,-0.543 0.112,-0.56C0.137,-0.577 0.17,-0.586 0.213,-0.586C0.256,-0.586 0.289,-0.577 0.314,-0.56C0.338,-0.543 0.355,-0.518 0.366,-0.486C0.376,-0.454 0.381,-0.416 0.381,-0.373L0.381,-0.205C0.381,-0.162 0.376,-0.124 0.366,-0.092C0.355,-0.06 0.338,-0.035 0.314,-0.018C0.289,-0.001 0.256,0.008 0.213,0.008ZM0.213,-0.071C0.234,-0.071 0.248,-0.077 0.257,-0.089C0.265,-0.101 0.27,-0.117 0.272,-0.137C0.273,-0.156 0.274,-0.177 0.274,-0.198L0.274,-0.379C0.274,-0.401 0.273,-0.422 0.272,-0.441C0.27,-0.46 0.265,-0.476 0.257,-0.489C0.248,-0.501 0.234,-0.507 0.213,-0.507C0.192,-0.507 0.178,-0.501 0.169,-0.489C0.16,-0.476 0.155,-0.46 0.154,-0.441C0.152,-0.422 0.151,-0.401 0.151,-0.379L0.151,-0.198C0.151,-0.177 0.152,-0.156 0.154,-0.137C0.155,-0.117 0.16,-0.101 0.169,-0.089C0.178,-0.077 0.192,-0.071 0.213,-0.071Z" style="fill:rgb(103,123,135);fill-rule:nonzero;"/>
            </g>
            <g transform="matrix(369.147,0,0,369.147,2959.53,297.476)">
                <path d="M0.054,0L0.054,-0.578L0.161,-0.578L0.161,-0.521C0.18,-0.539 0.202,-0.554 0.225,-0.567C0.248,-0.58 0.274,-0.586 0.302,-0.586C0.325,-0.586 0.343,-0.58 0.356,-0.568C0.368,-0.556 0.377,-0.541 0.382,-0.523C0.387,-0.505 0.389,-0.487 0.389,-0.468L0.389,0L0.282,0L0.282,-0.437C0.282,-0.458 0.279,-0.474 0.273,-0.485C0.267,-0.496 0.255,-0.502 0.236,-0.502C0.224,-0.502 0.212,-0.499 0.199,-0.492C0.186,-0.485 0.173,-0.476 0.161,-0.466L0.161,0L0.054,0Z" style="fill:rgb(103,123,135);fill-rule:nonzero;"/>
            </g>
        </g>
    </g>
</svg>
